<svg width="37" height="35" viewBox="0 0 37 35" fill="none" xmlns="http://www.w3.org/2000/svg">
<path d="M17.675 0H33.3866C35.0814 0 36.4679 1.38778 36.4679 3.0817V10.6386C36.4679 12.3356 35.0832 13.7203 33.3866 13.7203H31.128L27.5937 19.6883C27.1738 20.3994 26.1089 20.2203 25.9254 19.432L24.5769 13.7203H17.675C15.978 13.7203 14.5933 12.3356 14.5933 10.6386V3.0817C14.5933 1.38955 15.9824 0 17.675 0ZM17.6217 18.8114C18.8197 18.8114 18.8197 20.6332 17.6217 20.6332H15.2819C14.0838 20.6332 14.0838 18.8114 15.2819 18.8114H17.6217ZM17.6217 21.3972C18.8197 21.3972 18.8197 23.2191 17.6217 23.2191H15.2819C14.0838 23.2191 14.0838 21.3972 15.2819 21.3972H17.6217ZM6.59262 21.3972C7.79072 21.3972 7.79072 23.2191 6.59262 23.2191H4.25289C3.0548 23.2191 3.0548 21.3972 4.25289 21.3972H6.59262ZM12.1071 21.3972C13.3052 21.3972 13.3052 23.2191 12.1071 23.2191H9.76741C8.56931 23.2191 8.56931 21.3972 9.76741 21.3972H12.1071ZM6.59262 18.8114C7.79072 18.8114 7.79072 20.6332 6.59262 20.6332H4.25289C3.0548 20.6332 3.0548 18.8114 4.25289 18.8114H6.59262ZM12.1071 18.8114C13.3052 18.8114 13.3052 20.6332 12.1071 20.6332H9.76741C8.56931 20.6332 8.56931 18.8114 9.76741 18.8114H12.1071ZM18.7928 16.6018H3.08126C2.38781 16.6018 1.82185 17.1695 1.82185 17.8616V25.4185C1.82185 26.112 2.38914 26.6784 3.08126 26.6784H5.85727C6.21105 26.6784 6.51807 26.88 6.66894 27.1751L9.28967 31.6009L10.2853 27.3829C10.3832 26.9625 10.7577 26.6788 11.1715 26.6793L18.7928 26.6784C19.4841 26.6784 20.0527 26.1093 20.0527 25.4185V17.8616C20.0527 17.1686 19.4863 16.6018 18.7928 16.6018ZM3.08126 14.7799H18.7928C20.4859 14.7799 21.8745 16.1668 21.8745 17.8616V25.4185C21.8745 27.1156 20.4898 28.5002 18.7928 28.5002H11.891L10.5429 34.2119C10.3576 35.0002 9.29408 35.1793 8.87413 34.4682L5.33983 28.5002H3.08126C1.38734 28.5002 0 27.1138 0 25.4185V17.8616C0 16.1677 1.38646 14.7799 3.08126 14.7799ZM18.8467 5.8533C17.6481 5.8533 17.6481 4.03145 18.8467 4.03145H21.1859C22.384 4.03145 22.384 5.8533 21.1859 5.8533H18.8467ZM18.8467 8.43918C17.6481 8.43918 17.6481 6.61733 18.8467 6.61733H21.1859C22.384 6.61733 22.384 8.43918 21.1859 8.43918H18.8467ZM29.8752 8.43918C28.6771 8.43918 28.6771 6.61733 29.8752 6.61733H32.215C33.4131 6.61733 33.4131 8.43918 32.215 8.43918H29.8752ZM24.3612 8.43918C23.1626 8.43918 23.1626 6.61733 24.3612 6.61733H26.7005C27.8986 6.61733 27.8986 8.43918 26.7005 8.43918H24.3612ZM29.8752 5.8533C28.6771 5.8533 28.6771 4.03145 29.8752 4.03145H32.215C33.4131 4.03145 33.4131 5.8533 32.215 5.8533H29.8752ZM24.3612 5.8533C23.1626 5.8533 23.1626 4.03145 24.3612 4.03145H26.7005C27.8986 4.03145 27.8986 5.8533 26.7005 5.8533H24.3612ZM33.3866 1.82185H17.675C16.9798 1.82185 16.4152 2.38693 16.4152 3.0817V10.6386C16.4152 11.3294 16.9842 11.8985 17.675 11.8985L25.2968 11.8994C25.7106 11.8989 26.0851 12.1826 26.1826 12.603L27.1782 16.821L29.7989 12.3952C29.9498 12.1001 30.2568 11.8985 30.6106 11.8985H33.3866C34.0774 11.8985 34.646 11.3294 34.646 10.6386V3.0817C34.646 2.38958 34.0796 1.82185 33.3866 1.82185Z" fill="#A6BCE6"/>
</svg>
