<svg width="30" height="45" viewBox="0 0 30 45" fill="none" xmlns="http://www.w3.org/2000/svg">
<path d="M7.03071 20.938L8.32346 18.0361C8.73912 17.1031 9.82008 16.6745 10.7583 17.0607L11.2152 17.2493L11.4092 16.7947C13.1849 12.6358 14.8433 8.43718 16.384 4.19987L17.0369 2.38144L17.0469 2.35914C17.0546 2.3409 17.0641 2.31826 17.0746 2.29452C17.0984 2.24077 17.1132 2.20772 17.1258 2.17944C17.3427 1.69262 17.8901 1.26295 18.8373 1.10948L19.032 1.08287C20.2748 0.939974 22.1056 1.25051 24.0058 2.09702C25.7871 2.89066 27.1772 3.95378 27.9412 4.92361L28.0853 5.1161C28.7076 5.99229 28.7763 6.74732 28.5449 7.26658C28.5362 7.28619 28.5124 7.33997 28.486 7.39642C28.4727 7.42488 28.4595 7.45159 28.4488 7.47283C28.4442 7.4818 28.4412 7.48814 28.4391 7.49206L28.4387 7.49295C25.5829 11.8355 23.0137 16.3166 20.7497 20.9441L20.5221 21.4094L26.7682 24.192C26.8446 24.226 26.9008 24.2905 26.9264 24.3672L26.9422 24.4469L26.9414 24.4487C26.9451 24.5318 26.9137 24.611 26.8564 24.6685L26.7917 24.7177L23.8427 26.36L23.5156 26.5425L23.5987 26.9077L24.35 30.1984C24.3686 30.2802 24.3512 30.3643 24.3053 30.4308L24.2498 30.4906L24.2494 30.4914C24.1638 30.562 24.0454 30.5779 23.9435 30.5326L17.6956 27.7492L17.501 28.2292C15.8088 32.4204 14.3957 36.631 13.1816 41.0016L12.6734 42.8813C12.6719 42.8855 12.669 42.8924 12.6652 42.9022C12.6566 42.9243 12.6459 42.9514 12.6337 42.9801C12.6092 43.0378 12.5848 43.0922 12.5762 43.1117C12.3595 43.5979 11.812 44.0282 10.8647 44.1816L10.67 44.2082C9.42735 44.3511 7.59703 44.0408 5.69712 43.1945C3.91564 42.4009 2.52489 41.3374 1.76076 40.3675L1.61666 40.175C0.994546 39.299 0.926081 38.5431 1.15708 38.0245C1.16967 37.9963 1.18434 37.9631 1.20834 37.9095C1.21889 37.8859 1.2295 37.8635 1.23785 37.8456L1.24818 37.8224C3.71626 33.2756 5.99229 28.7608 8.17282 24.0617L8.37975 23.614L7.93483 23.4009C7.02006 22.9616 6.61532 21.8708 7.03071 20.938ZM18.6875 22.0695C18.7821 22.7879 18.6866 23.5399 18.3702 24.2502C18.0538 24.9607 17.5587 25.5344 16.9612 25.9446L16.2248 26.4504L23.6448 29.756L23.4226 28.7814L22.8924 26.4583C22.8669 26.3466 22.9086 26.2329 22.9959 26.1634L23.0358 26.1363L25.1175 24.9768L25.9907 24.4902L18.5706 21.1846L18.6875 22.0695ZM1.69498 38.2642C1.55239 38.5843 1.60559 38.8996 1.70164 39.1491C1.77161 39.3309 1.8757 39.5086 1.98556 39.6733L2.09677 39.8341C2.83523 40.8726 4.24228 41.9028 5.93635 42.6575C7.63044 43.4121 9.3374 43.7694 10.6033 43.6237L10.6024 43.6233C10.8548 43.5943 11.1332 43.5517 11.3759 43.459C11.6257 43.3635 11.8956 43.1922 12.0383 42.872C12.1809 42.5519 12.1277 42.2367 12.0316 41.9871C11.9383 41.7446 11.7833 41.5101 11.6361 41.3031L11.6374 41.3026C10.899 40.264 9.49182 39.2339 7.79778 38.4791C6.20925 37.7715 4.6094 37.4131 3.37247 37.4912L3.13081 37.5129C2.87839 37.542 2.60009 37.5845 2.35736 37.6773C2.10756 37.7728 1.83761 37.944 1.69498 38.2642ZM17.6638 2.41908C17.5212 2.73916 17.5744 3.05452 17.6704 3.30404C17.7404 3.48577 17.8445 3.66348 17.9543 3.82822L18.0655 3.98895C18.804 5.02749 20.2115 6.05681 21.9055 6.81149C23.5996 7.56613 25.3062 7.92426 26.5721 7.77857L26.5712 7.77817C26.8235 7.74916 27.102 7.70658 27.3447 7.61386C27.5944 7.51837 27.8644 7.34696 28.007 7.02694C28.1497 6.70678 28.0968 6.39067 28.0008 6.14109C27.9074 5.89887 27.7519 5.66481 27.6048 5.45796L27.6061 5.45746C26.8678 4.41888 25.4606 3.38878 23.7665 2.63404C22.1782 1.92642 20.5785 1.56722 19.3416 1.64525L19.0996 1.66785C18.8473 1.69685 18.5691 1.73861 18.3265 1.83127C18.0767 1.92678 17.8064 2.09891 17.6638 2.41908ZM16.8503 4.63854C15.3275 8.81246 13.6907 12.9487 11.9402 17.0473L11.7471 17.5001L14.1288 18.5612L14.2607 18.5483C14.9388 18.4814 15.6435 18.5839 16.3105 18.881C16.9775 19.1781 17.525 19.6336 17.9288 20.1824L18.0074 20.2891L19.9842 21.1697L20.1966 20.7362C22.1336 16.7729 24.2926 12.9154 26.6647 9.15938L27.169 8.36093L26.2248 8.39253C25.0029 8.4341 23.3587 8.10346 21.6659 7.34939C19.8764 6.55217 18.4775 5.48015 17.7151 4.50207L17.1605 3.79104L16.8503 4.63854ZM11.4792 21.1803C10.6979 22.9341 11.4865 24.9915 13.2402 25.7729C14.9941 26.5543 17.0519 25.7648 17.8332 24.011C18.6144 22.2572 17.8247 20.2002 16.0709 19.4189C14.3172 18.6378 12.2606 19.4267 11.4792 21.1803ZM7.56773 21.1772C7.27717 21.8298 7.57145 22.5954 8.22402 22.8861L10.7405 24.0072L10.6241 23.1214C10.5294 22.4029 10.6248 21.651 10.9413 20.9407C11.2578 20.2304 11.7529 19.6565 12.3504 19.2464L13.0863 18.7414L10.5699 17.6204C9.91721 17.3296 9.15123 17.6227 8.86047 18.2754L7.56773 21.1772ZM8.92322 23.8412L8.71579 24.2876C7.07061 27.834 5.37125 31.2763 3.57659 34.7053L2.8014 36.1742L2.3779 36.9712L3.27829 36.9083C4.51519 36.8217 6.24754 37.1449 8.03702 37.9421C9.72967 38.6963 11.0744 39.6967 11.8619 40.6329L12.4703 41.3551L12.7257 40.4457C13.926 36.1751 15.32 32.0568 16.9774 27.9574L17.1577 27.5096L15.1827 26.6297L15.0508 26.6426C14.3727 26.7095 13.6681 26.6071 13.001 26.3099C12.3339 26.0127 11.7865 25.5574 11.3827 25.0085L11.3041 24.9018L8.92322 23.8412Z" stroke="#A6BCE6"/>
</svg>
